<mxfile host="app.diagrams.net" modified="2021-07-27T10:46:05.001Z" agent="5.0 (Macintosh; Intel Mac OS X 10_15_7) AppleWebKit/537.36 (KHTML, like Gecko) Chrome/92.0.4515.107 Safari/537.36" etag="mEiNNo-n9AHa6Tq4Y7MK" version="14.9.2" type="github">
  <diagram id="mPdl5edqqd5qtUg2jnDU" name="Page-1">
    <mxGraphModel dx="1101" dy="748" grid="1" gridSize="10" guides="1" tooltips="1" connect="1" arrows="1" fold="1" page="1" pageScale="1" pageWidth="850" pageHeight="1100" math="0" shadow="0">
      <root>
        <mxCell id="0" />
        <mxCell id="1" parent="0" />
        <mxCell id="emNx118aZLmtcNimyzTa-27" value="" style="edgeStyle=orthogonalEdgeStyle;rounded=0;orthogonalLoop=1;jettySize=auto;html=1;" edge="1" parent="1" source="emNx118aZLmtcNimyzTa-29" target="emNx118aZLmtcNimyzTa-30">
          <mxGeometry relative="1" as="geometry" />
        </mxCell>
        <mxCell id="emNx118aZLmtcNimyzTa-28" value="" style="edgeStyle=orthogonalEdgeStyle;rounded=0;orthogonalLoop=1;jettySize=auto;html=1;" edge="1" parent="1" source="emNx118aZLmtcNimyzTa-29" target="emNx118aZLmtcNimyzTa-33">
          <mxGeometry relative="1" as="geometry">
            <Array as="points">
              <mxPoint x="350" y="180" />
              <mxPoint x="350" y="180" />
            </Array>
          </mxGeometry>
        </mxCell>
        <mxCell id="emNx118aZLmtcNimyzTa-29" value="&lt;b&gt;Input Datasets&lt;/b&gt;&lt;br&gt;(1) time-series excel workbook&lt;br&gt;(2) structural data csv files" style="rounded=0;whiteSpace=wrap;html=1;fillColor=#dae8fc;strokeColor=#6c8ebf;" vertex="1" parent="1">
          <mxGeometry x="250" y="70" width="200" height="80" as="geometry" />
        </mxCell>
        <mxCell id="emNx118aZLmtcNimyzTa-30" value="Data Prep page" style="shape=process;whiteSpace=wrap;html=1;backgroundOutline=1;rounded=0;size=0.06666666666666667;fillColor=#d5e8d4;strokeColor=#82b366;" vertex="1" parent="1">
          <mxGeometry x="550" y="80" width="140" height="60" as="geometry" />
        </mxCell>
        <mxCell id="emNx118aZLmtcNimyzTa-31" value="" style="edgeStyle=orthogonalEdgeStyle;rounded=0;orthogonalLoop=1;jettySize=auto;html=1;" edge="1" parent="1" source="emNx118aZLmtcNimyzTa-33" target="emNx118aZLmtcNimyzTa-35">
          <mxGeometry relative="1" as="geometry">
            <Array as="points">
              <mxPoint x="350" y="290" />
              <mxPoint x="190" y="290" />
            </Array>
          </mxGeometry>
        </mxCell>
        <mxCell id="emNx118aZLmtcNimyzTa-32" value="" style="edgeStyle=orthogonalEdgeStyle;rounded=0;orthogonalLoop=1;jettySize=auto;html=1;" edge="1" parent="1" source="emNx118aZLmtcNimyzTa-33" target="emNx118aZLmtcNimyzTa-43">
          <mxGeometry relative="1" as="geometry" />
        </mxCell>
        <mxCell id="emNx118aZLmtcNimyzTa-33" value="&lt;b&gt;Unemployment Rate Prediction on Kreis-level&lt;/b&gt;" style="rounded=0;whiteSpace=wrap;html=1;fillColor=#dae8fc;strokeColor=#6c8ebf;" vertex="1" parent="1">
          <mxGeometry x="210" y="190" width="300" height="60" as="geometry" />
        </mxCell>
        <mxCell id="emNx118aZLmtcNimyzTa-34" value="" style="edgeStyle=orthogonalEdgeStyle;rounded=0;orthogonalLoop=1;jettySize=auto;html=1;" edge="1" parent="1" source="emNx118aZLmtcNimyzTa-35" target="emNx118aZLmtcNimyzTa-44">
          <mxGeometry relative="1" as="geometry" />
        </mxCell>
        <mxCell id="emNx118aZLmtcNimyzTa-35" value="Error Analysis page" style="shape=process;whiteSpace=wrap;html=1;backgroundOutline=1;rounded=0;size=0.06666666666666667;fillColor=#d5e8d4;strokeColor=#82b366;" vertex="1" parent="1">
          <mxGeometry x="90" y="330" width="160" height="60" as="geometry" />
        </mxCell>
        <mxCell id="emNx118aZLmtcNimyzTa-36" value="" style="edgeStyle=orthogonalEdgeStyle;rounded=0;orthogonalLoop=1;jettySize=auto;html=1;entryX=0.5;entryY=0;entryDx=0;entryDy=0;" edge="1" parent="1" target="emNx118aZLmtcNimyzTa-38">
          <mxGeometry relative="1" as="geometry">
            <mxPoint x="350" y="260" as="sourcePoint" />
            <mxPoint x="356" y="330" as="targetPoint" />
            <Array as="points">
              <mxPoint x="350" y="260" />
              <mxPoint x="350" y="260" />
            </Array>
          </mxGeometry>
        </mxCell>
        <mxCell id="emNx118aZLmtcNimyzTa-37" value="" style="edgeStyle=orthogonalEdgeStyle;rounded=0;orthogonalLoop=1;jettySize=auto;html=1;" edge="1" parent="1" source="emNx118aZLmtcNimyzTa-38" target="emNx118aZLmtcNimyzTa-42">
          <mxGeometry relative="1" as="geometry" />
        </mxCell>
        <mxCell id="emNx118aZLmtcNimyzTa-38" value="&lt;b&gt;Output file&lt;/b&gt;&lt;br&gt;single excel worksheet" style="rounded=0;whiteSpace=wrap;html=1;fillColor=#dae8fc;strokeColor=#6c8ebf;" vertex="1" parent="1">
          <mxGeometry x="280" y="330" width="140" height="80" as="geometry" />
        </mxCell>
        <mxCell id="emNx118aZLmtcNimyzTa-39" value="" style="edgeStyle=orthogonalEdgeStyle;rounded=0;orthogonalLoop=1;jettySize=auto;html=1;" edge="1" parent="1" source="emNx118aZLmtcNimyzTa-40" target="emNx118aZLmtcNimyzTa-45">
          <mxGeometry relative="1" as="geometry" />
        </mxCell>
        <mxCell id="emNx118aZLmtcNimyzTa-40" value="Home page" style="shape=process;whiteSpace=wrap;html=1;backgroundOutline=1;rounded=0;size=0.06666666666666667;fillColor=#d5e8d4;strokeColor=#82b366;" vertex="1" parent="1">
          <mxGeometry x="450" y="330" width="140" height="60" as="geometry" />
        </mxCell>
        <mxCell id="emNx118aZLmtcNimyzTa-41" value="" style="edgeStyle=orthogonalEdgeStyle;rounded=0;orthogonalLoop=1;jettySize=auto;html=1;" edge="1" parent="1">
          <mxGeometry relative="1" as="geometry">
            <mxPoint x="350" y="250" as="sourcePoint" />
            <mxPoint x="520" y="330" as="targetPoint" />
            <Array as="points">
              <mxPoint x="350" y="290" />
              <mxPoint x="520" y="290" />
              <mxPoint x="520" y="330" />
            </Array>
          </mxGeometry>
        </mxCell>
        <mxCell id="emNx118aZLmtcNimyzTa-42" value="&lt;b&gt;Visualization&lt;/b&gt;:&lt;br&gt;(1) line plot,&lt;br&gt;(2) map of Germany" style="rounded=0;whiteSpace=wrap;html=1;fillColor=#dae8fc;strokeColor=#6c8ebf;" vertex="1" parent="1">
          <mxGeometry x="280" y="440" width="140" height="80" as="geometry" />
        </mxCell>
        <mxCell id="emNx118aZLmtcNimyzTa-43" value="Model page" style="shape=process;whiteSpace=wrap;html=1;backgroundOutline=1;rounded=0;size=0.06666666666666667;fillColor=#d5e8d4;strokeColor=#82b366;" vertex="1" parent="1">
          <mxGeometry x="550" y="190" width="140" height="60" as="geometry" />
        </mxCell>
        <mxCell id="emNx118aZLmtcNimyzTa-44" value="&lt;b&gt;Error Comparison&lt;/b&gt;&lt;br&gt;(1) structural data&lt;br&gt;(2) times of crisis" style="whiteSpace=wrap;html=1;rounded=0;strokeColor=#6c8ebf;fillColor=#dae8fc;" vertex="1" parent="1">
          <mxGeometry x="90" y="440" width="160" height="70" as="geometry" />
        </mxCell>
        <mxCell id="emNx118aZLmtcNimyzTa-45" value="&lt;b&gt;Ranks &amp;amp; Groups&lt;br&gt;&lt;/b&gt;e.g. (1) east/west,&lt;br&gt;(2) weak regions" style="rounded=0;whiteSpace=wrap;html=1;fillColor=#dae8fc;strokeColor=#6c8ebf;" vertex="1" parent="1">
          <mxGeometry x="450" y="440" width="140" height="80" as="geometry" />
        </mxCell>
      </root>
    </mxGraphModel>
  </diagram>
</mxfile>
